<svg width="64" height="64" viewBox="0 0 64 64" fill="none" xmlns="http://www.w3.org/2000/svg">
  <!-- Body -->
  <ellipse cx="32" cy="38" rx="18" ry="20" fill="#8B6914" />
  <ellipse cx="32" cy="42" rx="12" ry="14" fill="#D4A843" />
  <!-- Ears -->
  <ellipse cx="20" cy="16" rx="7" ry="8" fill="#D4956A" />
  <ellipse cx="20" cy="16" rx="4" ry="5" fill="#E8A0B0" />
  <ellipse cx="44" cy="16" rx="7" ry="8" fill="#D4956A" />
  <ellipse cx="44" cy="16" rx="4" ry="5" fill="#E8A0B0" />
  <!-- Head -->
  <ellipse cx="32" cy="26" rx="16" ry="14" fill="#8B6914" />
  <!-- Eyes -->
  <circle cx="26" cy="24" r="3" fill="#1B2838" />
  <circle cx="38" cy="24" r="3" fill="#1B2838" />
  <circle cx="27" cy="23" r="1" fill="#FFFFFF" />
  <circle cx="39" cy="23" r="1" fill="#FFFFFF" />
  <!-- Cheeks -->
  <ellipse cx="21" cy="29" rx="4" ry="3" fill="#F0C090" opacity="0.6" />
  <ellipse cx="43" cy="29" rx="4" ry="3" fill="#F0C090" opacity="0.6" />
  <!-- Nose -->
  <ellipse cx="32" cy="28" rx="2" ry="1.5" fill="#E8A0B0" />
  <!-- Smile -->
  <path d="M28 31 Q32 35 36 31" stroke="#5C4510" stroke-width="1.2" fill="none" stroke-linecap="round" />
  <!-- Paws -->
  <ellipse cx="22" cy="52" rx="4" ry="3" fill="#8B6914" />
  <ellipse cx="42" cy="52" rx="4" ry="3" fill="#8B6914" />
</svg>
